<?xml version="1.0" encoding="UTF-8"?>
<svg width="155px" height="155px" viewBox="0 0 155 155" version="1.1" xmlns="http://www.w3.org/2000/svg" xmlns:xlink="http://www.w3.org/1999/xlink">
    <!-- Generator: Sketch 55.2 (78181) - https://sketchapp.com -->
    <title>a3s</title>
    <desc>Created with Sketch.</desc>
    <defs>
        <linearGradient x1="50%" y1="0%" x2="50%" y2="100%" id="linearGradient-1">
            <stop stop-color="#05AFE1" offset="0%"></stop>
            <stop stop-color="#0277BF" offset="100%"></stop>
        </linearGradient>
        <circle id="path-2" cx="57.4995508" cy="57.4995508" r="57.4995508"></circle>
        <filter x="-25.7%" y="-25.7%" width="153.0%" height="153.0%" filterUnits="objectBoundingBox" id="filter-3">
            <feOffset dx="1" dy="1" in="SourceAlpha" result="shadowOffsetOuter1"></feOffset>
            <feGaussianBlur stdDeviation="10" in="shadowOffsetOuter1" result="shadowBlurOuter1"></feGaussianBlur>
            <feColorMatrix values="0 0 0 0 0.156862745   0 0 0 0 0.4   0 0 0 0 0.568627451  0 0 0 1 0" type="matrix" in="shadowBlurOuter1"></feColorMatrix>
        </filter>
    </defs>
    <g id="01-/-02-Login,-Menus" stroke="none" stroke-width="1" fill="none" fill-rule="evenodd">
        <g id="01.02_Login" transform="translate(-646.000000, -194.000000)" fill-rule="nonzero">
            <g id="Group" transform="translate(411.000000, 153.000000)">
                <g id="a3s" transform="translate(254.000000, 60.000000)">
                    <g id="magnifier">
                        <g id="Oval">
                            <use fill="black" fill-opacity="1" filter="url(#filter-3)" xlink:href="#path-2"></use>
                            <use fill="url(#linearGradient-1)" xlink:href="#path-2"></use>
                        </g>
                        <path d="M104.030527,91.2886621 C102.587187,93.2717383 101.02166,95.1586816 99.3438281,96.9378125 C96.8866016,99.542832 94.1899414,101.918076 91.2891113,104.030303 L82.9574512,95.6986426 C81.1971875,93.9408496 80.317168,91.6336621 80.317168,89.3266992 C80.317168,87.0219824 81.1971875,84.7172656 82.9574512,82.9572266 C86.4755078,79.4391699 92.1808105,79.4391699 95.6988672,82.9572266 L104.030527,91.2886621 Z" id="Path" fill="#D3E3F5"></path>
                        <path d="M91.2879883,104.030977 C93.2710645,102.587637 95.1580078,101.022109 96.9371387,99.3442773 L88.1243652,90.5315039 C85.5263086,87.9334473 84.8479883,84.1431641 86.0896289,80.920918 C84.9465918,81.3598047 83.8765527,82.0356543 82.9565527,82.958125 C81.1962891,84.715918 80.3185156,87.0231055 80.3185156,89.3300684 C80.3185156,91.6347852 81.1962891,93.939502 82.9565527,95.699541 L91.2879883,104.030977 Z" id="Path" fill="#93B1D6"></path>
                        <circle id="Oval" fill="#D3E3F5" cx="44.664248" cy="44.664248" r="44.664248"></circle>
                        <path d="M19.2649707,70.0606055 C20.3305176,71.1261523 21.4452539,72.1094922 22.6046875,73.0130957 C35.5408398,83.1025488 53.7930469,83.1025488 66.7244824,73.0108496 C67.8814453,72.1072461 68.9964063,71.1239063 70.0594824,70.0608301 C84.0870117,56.0355469 84.0870117,33.2938477 70.0594824,19.2663184 C56.0341992,5.24103516 33.2925,5.24103516 19.2649707,19.2663184 C5.2396875,33.2933984 5.2396875,56.0353223 19.2649707,70.0606055 Z" id="Path" fill="#FFFFFF"></path>
                        <path d="M34.2140723,70.0603809 C20.1878906,56.0341992 20.1878906,33.2929492 34.2140723,19.2667676 C39.3151758,14.1656641 45.5689746,10.9220801 52.1367773,9.53129883 C40.6448633,7.09788086 28.1911719,10.3416895 19.2656445,19.2667676 C5.23946289,33.2929492 5.23946289,56.0341992 19.2656445,70.0603809 C28.1909473,78.9856836 40.6446387,82.2297168 52.1367773,79.7958496 C45.5689746,78.405293 39.3151758,75.1614844 34.2140723,70.0603809 Z" id="Path" fill="#E4E5EE"></path>
                        <path d="M84.5730664,67.9171582 L67.9169336,84.573291 C65.7067773,86.7834473 65.7067773,90.3666406 67.9169336,92.5767969 L67.9169336,92.5767969 C70.1270898,94.7869531 73.7102832,94.7869531 75.9204395,92.5767969 L92.5765723,75.9206641 C94.7867285,73.7105078 94.7867285,70.1273145 92.5765723,67.9171582 L92.5765723,67.9171582 C90.366416,65.707002 86.7832227,65.707002 84.5730664,67.9171582 Z" id="Path" fill="#D3E3F5"></path>
                        <path d="M74.7425879,85.7513672 L74.7425879,85.7513672 C72.5324316,83.5412109 72.5324316,79.9580176 74.7425879,77.7478613 L67.9169336,84.5735156 C65.7067773,86.7836719 65.7067773,90.3668652 67.9169336,92.5770215 L67.9169336,92.5770215 C70.1270898,94.7871777 73.7102832,94.7871777 75.9204395,92.5770215 L82.7460937,85.7513672 C80.5361621,87.9615234 76.9527441,87.9615234 74.7425879,85.7513672 Z" id="Path" fill="#93B1D6"></path>
                        <path d="M44.6629004,15.0712891 C52.5675781,15.0712891 59.9985547,18.1493359 65.5875098,23.7380664 C71.1773633,29.3279199 74.2558594,36.7597949 74.2558594,44.6644727 C74.2558594,52.5689258 71.1773633,59.9999023 65.5872852,65.589082 C64.7216406,66.4547266 63.7942285,67.275 62.8324512,68.0260938 C57.6846289,72.0432324 51.2325,74.256084 44.6646973,74.256084 C38.0973438,74.256084 31.644541,72.0441309 26.4924512,68.0256445 C25.5320215,67.2772461 24.604834,66.4574219 23.7364941,65.589082 C18.1477637,60.0003516 15.0697168,52.5691504 15.0697168,44.6644727 C15.0697168,36.7595703 18.1477637,29.3274707 23.7360449,23.7385156 C29.326123,18.1493359 36.7582227,15.0712891 44.6629004,15.0712891 L44.6629004,15.0712891 Z M44.6629004,7.85571289 C35.2427832,7.85571289 25.8222168,11.4490137 18.6342676,18.6358398 C4.26106445,33.0115137 4.26106445,56.3178809 18.6342676,70.691084 C19.7263184,71.7831348 20.8686816,72.790957 22.0568652,73.7167969 C28.6848633,78.8861816 36.6755664,81.4714355 44.6646973,81.4714355 C52.6558496,81.4714355 60.6447559,78.8864062 67.2716309,73.7143262 C68.4573438,72.7882617 69.599707,71.7804395 70.6895117,70.691084 C85.0654102,56.3178809 85.0654102,33.0115137 70.6895117,18.6358398 C63.5031348,11.4490137 54.0832422,7.85571289 44.6629004,7.85571289 L44.6629004,7.85571289 Z" id="Shape" fill="#93B1D6"></path>
                    </g>
                    <path d="M66.1850046,41.4915268 C66.9701617,41.4915268 67.6074219,40.8542663 67.6074219,40.0691092 L67.6074219,35.15481 C67.6074219,34.3685655 66.9701617,33.7323927 66.1850046,33.7323927 L57.9082323,33.7323927 L57.9082323,25.4556204 C57.9082323,24.6704633 57.2720595,24.0332031 56.485815,24.0332031 L51.5715158,24.0332031 C50.7863587,24.0332031 50.1490982,24.6704633 50.1490982,25.4556204 L50.1490982,33.7323927 L42.3899643,33.7323927 L42.3899643,25.4556204 C42.3899643,24.6704633 41.7527038,24.0332031 40.967547,24.0332031 L36.0532475,24.0332031 C35.2680906,24.0332031 34.6308302,24.6704633 34.6308302,25.4556204 L34.6308302,33.7323927 L26.3540579,33.7323927 C25.5689011,33.7323927 24.9316406,34.3685655 24.9316406,35.15481 L24.9316406,40.0691092 C24.9316406,40.8542663 25.5689011,41.4915268 26.3540579,41.4915268 L34.6308302,41.4915268 L34.6308302,49.2506607 L26.3540579,49.2506607 C25.5689011,49.2506607 24.9316406,49.8879212 24.9316406,50.673078 L24.9316406,55.5873775 C24.9316406,56.3725344 25.5689011,57.0097948 26.3540579,57.0097948 L34.6308302,57.0097948 L34.6308302,65.2865671 C34.6308302,66.0717239 35.2680906,66.7089844 36.0532475,66.7089844 L40.967547,66.7089844 C41.7527038,66.7089844 42.3899643,66.0717239 42.3899643,65.2865671 L42.3899643,57.0097948 L50.1490982,57.0097948 L50.1490982,65.2865671 C50.1490982,66.0717239 50.7863587,66.7089844 51.5715158,66.7089844 L56.485815,66.7089844 C57.2720595,66.7089844 57.9082323,66.0717239 57.9082323,65.2865671 L57.9082323,57.0097948 L66.1850046,57.0097948 C66.9701617,57.0097948 67.6074219,56.3725344 67.6074219,55.5873775 L67.6074219,50.673078 C67.6074219,49.8879212 66.9701617,49.2506607 66.1850046,49.2506607 L57.9082323,49.2506607 L57.9082323,41.4915268 L66.1850046,41.4915268 Z M50.1490982,49.2506607 L42.3899643,49.2506607 L42.3899643,41.4915268 L50.1490982,41.4915268 L50.1490982,49.2506607 Z" id="Shape" fill="#AAD2C8"></path>
                    <g id="key" transform="translate(27.177734, 26.279297)">
                        <path d="M35.6975069,29.7570914 C35.4752779,29.552657 33.2832793,29.6940631 33.2832793,29.6940631 L33.2582853,27.3749212 L32.1861253,26.1494015 L29.6447544,26.1078354 L29.6423093,26.1043037 L29.6423093,26.1043037 C29.6315782,26.1388062 29.6410868,23.5534242 29.6410868,23.5534242 L28.4548239,22.6939847 C28.4548239,22.6939847 26.1476356,22.6262021 26.1286185,22.6084075 L25.9432012,20.2381909 L23.8071673,17.7098603 C24.5453046,16.1170379 24.9708813,14.3470842 24.9708813,12.4748454 C24.9708813,5.58642477 19.381604,0.00190146806 12.4873424,0.00190146806 C5.58927734,0.000543347682 0,5.5850664 0,12.473487 C0,19.3631302 5.58927734,24.9487399 12.4847615,24.9487399 C14.3973438,24.9487399 16.2030226,24.5053686 17.8231482,23.7362605 L32.0220344,38.0207239 C32.0220344,38.0207239 38.0332209,38.037296 38.0332209,38.0352075 L38.0427295,31.9679714 C38.0427295,31.9679714 37.0989353,31.0479487 35.6975069,29.7570914 Z M10.1027271,13.0916804 C8.46833859,13.0916804 7.1440655,11.7591212 7.1440655,10.1152241 C7.1440655,8.471327 8.46820276,7.13754534 10.1027271,7.13754534 C11.7372515,7.13754534 13.0626113,8.47119117 13.0626113,10.1152241 C13.0626113,11.7592571 11.7371157,13.0916804 10.1027271,13.0916804 Z" id="Shape" fill="#FFAC00"></path>
                        <path d="M10.1050364,5.94516979 C7.80735666,5.94516979 5.94462644,7.80790001 5.94462644,10.1055797 C5.94462644,12.4032594 7.80735666,14.2659896 10.1050364,14.2659896 C12.4039386,14.2659896 14.2654463,12.4032594 14.2654463,10.1055797 C14.2654463,7.80790001 12.4039386,5.94516979 10.1050364,5.94516979 Z M10.1050364,11.8887095 C9.1207628,11.8887095 8.32204234,11.0898532 8.32204234,10.1057155 C8.32204234,9.12035529 9.12089864,8.32272153 10.1050364,8.32272153 C11.0893099,8.32272153 11.8880304,9.12035529 11.8880304,10.1057155 C11.8880304,11.0898532 11.0893099,11.8887095 10.1050364,11.8887095 Z" id="Shape" fill="#F37600"></path>
                        <path d="M20.6796606,21.8712211 C19.5444723,22.8602489 18.2309303,23.6411748 16.7914676,24.1725684 L30.9070859,38.0409636 L36.8504898,38.0409636 L20.6796606,21.8712211 Z" id="Path" fill="#F37600"></path>
                    </g>
                </g>
            </g>
        </g>
    </g>
</svg>