<svg id="Layer_1" data-name="Layer 1" xmlns="http://www.w3.org/2000/svg" viewBox="0 0 2000 388.07"><defs><style>.cls-1{fill:#001c44;}</style></defs><title>GB_logo_navy</title><path class="cls-1" d="M286.37,148.36,264.92,244c-41.77,8.65-95.58,15.42-140.36,15.42C23,259.37.75,217.23,13.92,160.78,30.1,88.53,90.69,57.3,179.5,57.3c73.38,0,122.68,15,113.27,63.59H203.58a20.33,20.33,0,0,0-7.15-15.43c-5.26-4.51-13.54-7.52-27.09-7.52-36.5,0-61.72,23.33-69.62,57.57-8.28,36.88,3.39,63.6,45.91,63.6,18.44,0,32.74-2.63,41-6.4l6.4-29.35H144.13l44.78-41h57.57s-34.24,13.93-41.39,16.94c-11.29,4.51-27.85,10.53-52.68,21.07,14.3-3,28.6-6.77,39.88-9.41,20-5.27,37.26-10.16,56.83-16.18a303.72,303.72,0,0,0,31.23-10.16c8.66-2.63,23.71-11.67,28.6-15,17.31-11.67,25.59-18.44,35.37-31.61A41.74,41.74,0,0,0,353,71.6c0-14.68-16.18-30.49-30.48-36.51-5.65-2.25-14.3-6.39-23.71-9.4A227.8,227.8,0,0,0,273.58,20C251,15.9,226.16,15.9,225,15.9h-9.78c-1.51,0-31.23,1.51-31.23,1.51-9.41,1.13-23,2.63-33.5,4.51C120.8,26.44,108,29.45,81.66,37.35c-6.4,1.88-25.21,8.28-41.77,15.43C23.33,60.31,11.67,66.7,0,75V71.22A229.62,229.62,0,0,1,19.57,58.8c7.15-4.14,16.56-9.41,36.5-18.44,32.36-14.67,78.27-28.6,119.29-34.62A494.19,494.19,0,0,1,240.84.1c12.42-.38,51.93,0,82.79,7.52,16.93,4.52,31.61,9.41,42.52,17.69,12.42,9,19.94,19.57,19.94,32.74,0,1.5.38,9-1.5,13.55-6.4,16.55-15.81,24.46-31.61,37.25-.38.38-9.41,6.77-10.54,7.53L318,131.81c-7.15,4.51-17.68,9.4-21.45,11.66-1.88.75-6,3-10.16,4.89Z"/><path class="cls-1" d="M587,143.47c7.15-39.13-30.48-51.55-86.92-51.55-68.49,0-114.78,25.59-127.2,83.54-9.78,45.53,7.15,79.78,85.05,79.78,34.24,0,75.64-5.65,107.62-12.42l17.69-81.66H480.17L473.4,193.9H511l-4.89,23.7c-6.4,3.39-17.31,5.65-31.61,5.65-32.74,0-41.4-21.45-35.38-51.56,6-27.84,25.59-46.66,53.44-46.66,10.54,0,16.93,2.64,20.7,6.4a17.92,17.92,0,0,1,5.64,12.42l68.11-.38Zm7.15,107.63h65.48l12-56.45h19.57c22.58,0,24.46,2.63,23.71,21.45l-1.88,34.62h65.1l2.63-51.93c.76-15.43-10.53-21.07-25.58-21.45l.37-2.26c20-3.39,36.88-16.56,41.4-36.5,7.52-34.62-17.31-42.52-59.46-42.52H626.93l-32.74,155ZM686,127.29h23.71c15.81,0,24.84,4.52,21.83,18.44-3,14.68-14.68,18.81-28.6,18.81H678.11l7.9-37.25ZM799.66,251.1h65.48l33.11-155H832.78l-33.12,155Zm94.45,0h56.45l23.71-110.64h.37l32,110.64h92.57l33.12-155h-56.45l-22.2,103.86h-.38l-30.1-103.86H927.61l-33.5,155Zm326.64-119.67h18.06c29.73,0,44.41,13.55,38.39,42.52-6.4,29-26.72,42.53-56.45,42.53h-18.06l18.06-85ZM1130.06,251.1h94.45c47.8,0,66.61-6,87.68-20.7,15.81-10.54,28.23-32.74,32.74-55.69,4.9-23.34,1.13-41.78-7.52-53.44-16.56-21.45-45.54-25.59-91.45-25.59H1162.8L1130.06,251.1Zm223.15,0h65.48l12-56.45h19.57c22.58,0,24.46,2.63,23.71,21.45l-1.88,34.62h65.47l2.64-51.93c.75-15.43-10.54-21.07-25.59-21.45l.38-2.26c19.94-3.39,36.87-16.56,41.39-36.5C1564,104,1539.11,96.06,1497,96.06H1386.33l-33.12,155Zm91.45-123.81h23.7c15.81,0,24.84,4.52,21.83,18.44-3,14.68-14.68,18.81-28.6,18.81h-24.84l7.91-37.25Zm330.4,46.29c9.78-46.67-10.54-81.66-86.55-81.66-39.89,0-60.59,6.39-77.52,17.31-20.7,12.42-37.26,34.62-43.66,64.72-9.78,46.66,10.54,81.66,86.55,81.66,39.89,0,69.25-10.53,89.19-26.72,15.81-12.79,27.09-31.23,32-55.31Zm-66.23,0c-6.78,31.61-25.59,46.66-47,46.66s-34.25-14.68-27.47-46.66c6.77-31.61,25.59-46.67,47-46.67,21.44.38,34.24,14.68,27.47,46.67Zm164.82-42.15h18.06c29.73,0,44.41,13.55,38.39,42.52-6.4,29-26.72,42.53-56.45,42.53h-18.06l18.06-85ZM1783,251.1h94.45c47.79,0,66.61-6,87.68-20.7,15.81-10.54,28.23-32.74,32.74-55.69,4.89-23.34,1.13-41.78-7.52-53.44-16.56-21.45-45.54-25.59-91.45-25.59H1815.7L1783,251.1Z"/><path class="cls-1" d="M1563.19,298.13H1602a164.08,164.08,0,0,1,16.94.76,20.73,20.73,0,0,1,9.41,3.76,16.06,16.06,0,0,1,5.64,7.53,16.44,16.44,0,0,1,.38,10.53,32.56,32.56,0,0,1-6.4,11.67c-3,3.76-7.53,6-12,7.9,5.64,1.51,9.4,4.52,11.66,8.28s2.64,8.28,1.51,13.55a31.43,31.43,0,0,1-6,11.66,41.81,41.81,0,0,1-10.54,9.41,42.63,42.63,0,0,1-14.3,4.52c-3.39.37-11.29.37-23.71.37h-33.11ZM1579,312.81l-5.27,20.7h12.8c7.52,0,12.41,0,14.67-.38a16.09,16.09,0,0,0,8.66-3.39c2.63-1.5,3.76-4.13,4.51-7.14.38-2.64.38-4.9-.75-6.78a13,13,0,0,0-6.4-3.39c-1.88-.37-7.52-.37-16.56-.37l-11.66.75Zm-9,35.75-6,24.08h18.44c7.15,0,11.66-.37,13.54-.37a15.06,15.06,0,0,0,7.91-3.39,14.07,14.07,0,0,0,4.51-7.52,13.17,13.17,0,0,0-.38-6.78c-.75-1.88-2.63-3.39-5.26-4.14s-8.28-1.5-17.31-1.5H1570Z"/><path class="cls-1" d="M1726.89,387.7h-21.45l-3.39-20.32h-38.76l-13.17,20.32h-20.7L1690,298.13h20.7Zm-27.47-35.38-5.27-33.49-21.45,33.49Z"/><path class="cls-1" d="M1737.43,387.7,1760,298.13h19.2L1804,358l15-59.84h18.44L1815,387.7h-19.57L1770.92,329l-14.68,58.71Z"/><path class="cls-1" d="M1836,387.7l22.58-89.57h19.57L1868.38,338l49.67-39.89h26.72l-45.53,35,24.84,54.57h-25.59l-16.18-42.15-19.57,15.05L1856,387.7Z"/></svg>